inDegrees=yes
name=ik_Xsens_4_quaternion
DataType=double
version=3
OpenSimVersion=4.4-2022-07-23-0e9fedc
endheader
time	r_shoulder_elev	r_elbow_flex
35.98333333333333	-115.0122616597486	121.7906330552169
36	-114.9957245812806	121.6633601201355
36.01666666666667	-115.0393677623433	121.6200118020597
36.03333333333333	-115.188965536157	121.7320798632206
36.05	-115.342654179007	121.9215862596924
36.06666666666666	-115.4049755633454	122.068262456937
36.08333333333334	-115.4138040984415	122.1937095391158
36.1	-115.4554441273348	122.3565364707063
36.11666666666667	-115.5584812657446	122.6017722131916
36.13333333333333	-115.6786725124881	122.8777310150909
36.15	-115.7155160779203	123.1064768680996
36.16666666666666	-115.6432875210989	123.257109203268
36.18333333333333	-115.59609402021	123.4376698696662
36.2	-115.543262213793	123.5717723699806
36.21666666666667	-115.4835859078806	123.5924535617593
36.23333333333333	-115.4364733224024	123.5379862570419
36.25	-115.3982238056556	123.4603252400984
36.26666666666667	-115.3072665271926	123.3301733659604
36.28333333333333	-115.1639530493833	123.156699965545
36.3	-115.0140274438377	123.0113930202341
36.31666666666666	-114.8850291579008	122.9203405104772
36.33333333333334	-114.8692601040451	122.93655079192
36.35	-114.9854760646071	123.1398833507176
36.36666666666667	-115.071755683368	123.2977882083418
36.38333333333333	-115.0582605530322	123.3123616483027
36.4	-114.999756875664	123.2062502987651
36.41666666666666	-114.9396271346447	123.0799854746193
36.43333333333333	-114.8762232291119	122.9298301348725
36.45	-114.8020628272832	122.8049836322584
36.46666666666667	-114.7416957469413	122.7262032349852
36.48333333333333	-114.7238986115104	122.7433676519722
36.5	-114.6879505411406	122.7782860318843
36.51666666666667	-114.6638391717348	122.8008365825361
36.53333333333333	-114.6299158695757	122.8355544688672
36.55	-114.6287401644677	122.8895075678119
36.56666666666666	-114.5780313313799	122.8359970094655
36.58333333333334	-114.5308831474699	122.7706374659197
36.6	-114.5138023573623	122.7871905631095
36.61666666666667	-114.4960137464705	122.8047708242529
36.63333333333333	-114.4809192452648	122.8184426195445
36.65	-114.4429040035646	122.8025871212822
36.66666666666666	-114.4232313782573	122.8222968843715
36.68333333333333	-114.4084438514425	122.8379340483755
36.7	-114.432560316433	122.9106936966342
36.71666666666667	-114.442964505181	122.9873945892152
36.73333333333333	-114.4465219500189	123.0274216288676
36.75	-114.45865684895	123.1029435086714
36.76666666666667	-114.4471701887951	123.1147470239266
36.78333333333333	-114.4225964319699	123.0707971528831
36.8	-114.4140596203969	123.0145728772264
36.81666666666666	-114.3954197453368	122.9090682755473
36.83333333333334	-114.389476028156	122.809707178511
36.85	-114.3909718511887	122.7399276671682
36.86666666666667	-114.4210828511865	122.7087663753141
36.88333333333333	-114.4173863774541	122.6504389452596
36.9	-114.4124686245555	122.5655482286775
36.91666666666666	-114.4028557205574	122.484979334984
36.93333333333333	-114.3641872651294	122.4233638660394
36.95	-114.3377860383222	122.3747171784277
36.96666666666667	-114.3681050108415	122.3926263061584
36.98333333333333	-114.42913536706	122.459227310587
37	-114.5287910546026	122.5878949682067
37.01666666666667	-114.6347238922172	122.7833411187408
37.03333333333333	-114.6518050260137	122.9618690352777
37.05	-114.5548225145902	123.061266762546
37.06666666666666	-114.4705722513247	123.0720419621228
37.08333333333334	-114.4346131358936	123.1087020667295
37.1	-114.4216008590775	123.1219557059989
37.11666666666667	-114.385565922363	123.1204450496876
37.13333333333333	-114.3300374583202	123.1261800356876
37.15	-114.2945341734636	123.2062554922441
37.16666666666666	-114.2634704336757	123.2930663834346
37.18333333333333	-114.2422778584583	123.3144842873853
37.2	-114.2169533769659	123.2901065048445
37.21666666666667	-114.1727910237393	123.2263228634328
37.23333333333333	-114.1509650037916	123.1891254832397
37.25	-114.2032475794607	123.2510798783977
37.26666666666667	-114.323669425997	123.3905688381518
37.28333333333333	-114.5284102330143	123.6419295303382
